<?xml version="1.0" encoding="UTF-8" standalone="no"?>
<!DOCTYPE svg PUBLIC "-//W3C//DTD SVG 1.1//EN"
"http://www.w3.org/Graphics/SVG/1.1/DTD/svg11.dtd">


<!-- Page 1 -->
<svg x="0" y="0" width="391" height="93" viewBox="0 0 391 93" version="1.1" xmlns="http://www.w3.org/2000/svg" xmlns:xlink="http://www.w3.org/1999/xlink"
style="display: block;margin-left: auto;margin-right: auto;">
<defs>

<style type="text/css"><![CDATA[
text { white-space: pre; }
path, image { pointer-events: none; }

.s1_1{
font-size: 15.22px;
font-family: CMR10_4;
fill: #000000;
}
.s2_1{
font-size: 15.22px;
font-family: CMMI10_5;
fill: #000000;
}

.g0_1{
fill: none;
stroke: #000000;
stroke-width: 0.6080556;
stroke-linecap: butt;
stroke-linejoin: miter;
}

]]></style>

</defs>
<path d="M0,0
L0,93
L391,93
L391,0 Z " 
fill="#FFFFFF" stroke="none" />
<path d="M0,.3H391M0,18.9V.6M153.6,18.9V.6" class="g0_1" />
<text x="162" y="13" class="s1_1">20%-80%</text>
<text x="241" y="13" class="s1_1">50%-50%</text>
<text x="321" y="13" class="s1_1">80%-20%</text>
<path d="M391,18.9V.6M0,19.2H391M0,37.7V19.5" class="g0_1" />
<text x="25" y="32" dx="0,0,0,0,1.3,0,0,0,0,0,0,0,0,0" class="s1_1">Max Estimators</text>
<path d="M153.6,37.7V19.5" class="g0_1" />
<text x="168" y="32" class="s1_1">250</text>
<text x="191" y="32" class="s2_1">.</text>
<text x="195" y="32" class="s1_1">000</text>
<text x="247" y="32" class="s1_1">250</text>
<text x="270" y="32" class="s2_1">.</text>
<text x="274" y="32" class="s1_1">000</text>
<text x="326" y="32" class="s1_1">150</text>
<text x="349" y="32" class="s2_1">.</text>
<text x="353" y="32" class="s1_1">000</text>
<path d="M391,37.7V19.5M0,56V37.7" class="g0_1" />
<text x="15" y="50" dx="0,-1.3,0,0,0,0,0,0,0,1.3,0,0,0,0,0,0,0" class="s1_1">Training Accuracy</text>
<path d="M153.6,56V37.7" class="g0_1" />
<text x="175" y="50" class="s1_1">1</text>
<text x="183" y="50" class="s2_1">.</text>
<text x="187" y="50" class="s1_1">000</text>
<text x="254" y="50" class="s1_1">1</text>
<text x="262" y="50" class="s2_1">.</text>
<text x="266" y="50" class="s1_1">000</text>
<text x="334" y="50" class="s1_1">1</text>
<text x="341" y="50" class="s2_1">.</text>
<text x="345" y="50" class="s1_1">000</text>
<path d="M391,56V37.7M0,74.3V56" class="g0_1" />
<text x="9" y="68" dx="0,-1.3,0,0,0,0,0,0,0,0,0,1.3,0,0,0,0,0,0,0" class="s1_1">Validation Accuracy</text>
<path d="M153.6,74.3V56" class="g0_1" />
<text x="175" y="68" class="s1_1">0</text>
<text x="183" y="68" class="s2_1">.</text>
<text x="187" y="68" class="s1_1">693</text>
<text x="254" y="68" class="s1_1">0</text>
<text x="262" y="68" class="s2_1">.</text>
<text x="266" y="68" class="s1_1">830</text>
<text x="334" y="68" class="s1_1">0</text>
<text x="341" y="68" class="s2_1">.</text>
<text x="345" y="68" class="s1_1">890</text>
<path d="M391,74.3V56M0,92.5V74.3" class="g0_1" />
<text x="19" y="87" dx="0,-1.3,0,0,0,0,0,0,1.3,0,0,0,0,0,0,0" class="s1_1">Testing Accuracy</text>
<path d="M153.6,92.5V74.3" class="g0_1" />
<text x="175" y="87" class="s1_1">0</text>
<text x="183" y="87" class="s2_1">.</text>
<text x="187" y="87" class="s1_1">713</text>
<text x="254" y="87" class="s1_1">0</text>
<text x="262" y="87" class="s2_1">.</text>
<text x="266" y="87" class="s1_1">858</text>
<text x="334" y="87" class="s1_1">0</text>
<text x="341" y="87" class="s2_1">.</text>
<text x="345" y="87" class="s1_1">920</text>
<path d="M391,92.5V74.3M0,92.8H391" class="g0_1" />


<!-- Any embedded fonts defined here -->
<style type="text/css" ><![CDATA[

@font-face {
	font-family: CMMI10_5;
	src: url("fonts/CMMI10_5.woff") format("woff");
}

@font-face {
	font-family: CMR10_4;
	src: url("fonts/CMR10_4.woff") format("woff");
}

]]></style>

</svg>
